<mxfile host="app.diagrams.net" modified="2023-12-10T10:26:41.475Z" agent="Mozilla/5.0 (Windows NT 10.0; Win64; x64) AppleWebKit/537.36 (KHTML, like Gecko) Chrome/120.0.0.0 Safari/537.36" version="22.1.7" etag="uUi9NIXinKwoIBc6qSfg" type="github">
  <diagram name="第 1 页" id="XSzrxrX8-zM4mr7y0TU7">
    <mxGraphModel>
      <root>
        <mxCell id="0" />
        <mxCell id="1" parent="0" />
      </root>
    </mxGraphModel>
  </diagram>
</mxfile>
